{
    "asset": {
        "generator": "FBX2glTF v0.9.7",
        "version": "2.0"
    },
    "scene": 0,
    "buffers": [
        {
            "byteLength": 992,
            "uri": "buffer.bin"
        }
    ],
    "bufferViews": [
        {
            "buffer": 0,
            "byteLength": 192,
            "byteOffset": 0,
            "target": 34963
        },
        {
            "buffer": 0,
            "byteLength": 300,
            "byteOffset": 192,
            "target": 34962
        },
        {
            "buffer": 0,
            "byteLength": 300,
            "byteOffset": 492,
            "target": 34962
        },
        {
            "buffer": 0,
            "byteLength": 200,
            "byteOffset": 792,
            "target": 34962
        }
    ],
    "scenes": [
        {
            "name": "Root Scene",
            "nodes": [
                0
            ]
        }
    ],
    "accessors": [
        {
            "componentType": 5123,
            "type": "SCALAR",
            "count": 96,
            "bufferView": 0,
            "byteOffset": 0
        },
        {
            "componentType": 5126,
            "type": "VEC3",
            "count": 25,
            "bufferView": 1,
            "byteOffset": 0,
            "min": [
                -0.492125958204269,
                -1.10236215591431,
                0.0
            ],
            "max": [
                0.492125958204269,
                1.10236215591431,
                0.0
            ]
        },
        {
            "componentType": 5126,
            "type": "VEC3",
            "count": 25,
            "bufferView": 2,
            "byteOffset": 0
        },
        {
            "componentType": 5126,
            "type": "VEC2",
            "count": 25,
            "bufferView": 3,
            "byteOffset": 0
        }
    ],
    "images": [
        {
            "name": "贴图 #1",
            "uri": "data:image/png;base64,"
        }
    ],
    "samplers": [
        {}
    ],
    "textures": [
        {
            "name": "贴图 #1",
            "sampler": 0,
            "source": 0
        }
    ],
    "materials": [
        {
            "name": "Material #25",
            "alphaMode": "OPAQUE",
            "extras": {
                "fromFBX": {
                    "shadingModel": "Phong",
                    "isTruePBR": false
                }
            },
            "pbrMetallicRoughness": {
                "baseColorTexture": {
                    "index": 0,
                    "texCoord": 0
                },
                "baseColorFactor": [
                    1.0,
                    1.0,
                    1.0,
                    1.0
                ],
                "metallicFactor": 0.400000005960464,
                "roughnessFactor": 0.70710676908493
            }
        }
    ],
    "meshes": [
        {
            "name": "Plane001",
            "primitives": [
                {
                    "material": 0,
                    "mode": 4,
                    "attributes": {
                        "NORMAL": 2,
                        "POSITION": 1,
                        "TEXCOORD_0": 3
                    },
                    "indices": 0
                }
            ]
        }
    ],
    "nodes": [
        {
            "name": "RootNode",
            "translation": [
                0.0,
                0.0,
                0.0
            ],
            "rotation": [
                0.0,
                0.0,
                0.0,
                1.0
            ],
            "scale": [
                1.0,
                1.0,
                1.0
            ],
            "children": [
                1
            ]
        },
        {
            "name": "Plane001",
            "translation": [
                0.0,
                0.0,
                3.15140425755089e-07
            ],
            "rotation": [
                8.14603424714733e-08,
                0.0,
                0.0,
                1.0
            ],
            "scale": [
                2.53999996185303,
                2.53999996185303,
                2.53999996185303
            ],
            "mesh": 0
        }
    ]
}